<svg width="500" height="200" xmlns="http://www.w3.org/2000/svg">

  <!-- Incident Artifact -->
  <g id="incident" transform="translate(20, 20)">
    <rect x="0" y="0" width="100" height="50" fill="#FF6347" rx="10" ry="10"/>
    <text x="25" y="30" font-family="Arial" font-size="15" fill="white">Incident</text>
  </g>

  <!-- Conversation Artifact -->
  <g id="conversation" transform="translate(160, 20)">
    <rect x="0" y="0" width="100" height="50" fill="#4682B4" rx="10" ry="10"/>
    <text x="15" y="30" font-family="Arial" font-size="15" fill="white">Conversation</text>
  </g>

  <!-- SAP S/4HANA Artifact -->
  <g id="sap" transform="translate(20, 100)">
    <rect x="0" y="0" width="120" height="50" fill="#8A2BE2" rx="10" ry="10"/>
    <text x="10" y="30" font-family="Arial" font-size="15" fill="white">SAP S/4HANA</text>
  </g>

  <!-- Customer Artifact -->
  <g id="customer" transform="translate(160, 100)">
    <rect x="0" y="0" width="100" height="50" fill="#32CD32" rx="10" ry="10"/>
    <text x="25" y="30" font-family="Arial" font-size="15" fill="white">Customer</text>
  </g>

  <!-- Address Artifact -->
  <g id="address" transform="translate(300, 100)">
    <rect x="0" y="0" width="100" height="50" fill="#FFA500" rx="10" ry="10"/>
    <text x="25" y="30" font-family="Arial" font-size="15" fill="white">Address</text>
  </g>

  <!-- Arrows -->
  <!-- Incident to Conversation (Red Arrow) -->
  <line x1="120" y1="45" x2="160" y2="45" stroke="red" stroke-width="2"/>
  <polygon points="160,40 170,45 160,50" fill="red"/>

  <!-- Incident to Customer (Red Arrow) -->
  <line x1="70" y1="50" x2="70" y2="100" stroke="red" stroke-width="2"/>
  <polygon points="65,100 70,110 75,100" fill="red"/>

  <!-- SAP S/4HANA to Customer (Red Arrow) -->
  <line x1="140" y1="125" x2="160" y2="125" stroke="red" stroke-width="2"/>
  <polygon points="160,120 170,125 160,130" fill="red"/>

  <!-- Customer to Address (Red Arrow) -->
  <line x1="260" y1="125" x2="300" y2="125" stroke="red" stroke-width="2"/>
  <polygon points="300,120 310,125 300,130" fill="red"/>

</svg>
